<?xml version="1.0" encoding="UTF-8"?>
<svg xmlns="http://www.w3.org/2000/svg" xmlns:xlink="http://www.w3.org/1999/xlink" width="290.547" height="141.73" viewBox="0 0 290.547 141.73">
<defs>
<clipPath id="clip-0">
<path clip-rule="nonzero" d="M 148 0 L 290.042969 0 L 290.042969 141.460938 L 148 141.460938 Z M 148 0 "/>
</clipPath>
<clipPath id="clip-1">
<path clip-rule="nonzero" d="M 0.0507812 0 L 142 0 L 142 141.460938 L 0.0507812 141.460938 Z M 0.0507812 0 "/>
</clipPath>
</defs>
<g clip-path="url(#clip-0)">
<path fill-rule="nonzero" fill="rgb(7.756042%, 46.932983%, 78.042603%)" fill-opacity="1" d="M 148.582031 141.445312 L 290.042969 141.445312 L 290.042969 0 L 148.582031 0 Z M 148.582031 141.445312 "/>
</g>
<g clip-path="url(#clip-1)">
<path fill-rule="nonzero" fill="rgb(7.756042%, 46.932983%, 78.042603%)" fill-opacity="1" d="M 0.0664062 141.445312 L 141.511719 141.445312 L 141.511719 0 L 0.0664062 0 Z M 0.0664062 141.445312 "/>
</g>
<path fill-rule="nonzero" fill="rgb(100%, 100%, 100%)" fill-opacity="1" d="M 23.132812 62.238281 C 24.210938 62.824219 25.484375 63.214844 26.949219 63.511719 L 28.222656 69.386719 L 22.351562 94.644531 L 19.707031 96.507812 L 12.363281 128.03125 L 6.390625 132.636719 Z M 28.027344 62.335938 C 22.546875 62.238281 18.140625 57.929688 18.140625 52.542969 C 18.140625 46.765625 22.644531 42.652344 28.324219 42.652344 C 30.964844 42.652344 33.316406 43.828125 34.882812 45.789062 C 32.632812 45.496094 30.476562 47.058594 29.789062 48.824219 C 29.203125 48.628906 28.714844 48.628906 28.324219 48.628906 C 26.070312 48.628906 24.308594 50.390625 24.308594 52.542969 C 24.308594 54.699219 26.070312 56.558594 28.324219 56.558594 C 30.574219 56.558594 31.945312 54.792969 31.945312 52.542969 C 31.945312 52.445312 31.945312 52.25 31.945312 52.152344 C 32.042969 52.054688 32.238281 52.054688 32.53125 52.054688 C 32.925781 52.054688 33.316406 52.25 33.316406 52.933594 C 33.316406 53.71875 33.023438 55.1875 33.023438 56.65625 C 33.023438 58.027344 33.316406 59.003906 33.707031 59.984375 L 37.035156 73.886719 C 36.546875 74.28125 36.058594 74.769531 35.667969 75.359375 C 33.804688 75.75 32.238281 76.921875 31.554688 78.589844 Z M 48.492188 71.539062 C 45.652344 71.539062 43.890625 71.734375 41.929688 71.734375 C 38.898438 71.734375 36.644531 70.460938 35.957031 68.011719 C 37.132812 68.011719 38.015625 67.035156 38.015625 65.859375 C 38.015625 63.511719 34.394531 61.160156 34.394531 56.65625 C 34.394531 55.1875 34.589844 53.816406 34.589844 52.738281 C 34.589844 51.566406 33.609375 50.78125 32.53125 50.78125 C 31.652344 50.78125 30.867188 51.171875 30.476562 51.566406 C 30.28125 48.824219 32.53125 46.765625 35.371094 46.960938 C 35.765625 46.082031 37.230469 45.003906 38.898438 45.003906 C 40.074219 45.003906 40.660156 45.296875 41.246094 45.691406 C 41.738281 45.496094 42.324219 45.394531 43.105469 45.394531 C 45.359375 45.394531 47.804688 47.257812 47.804688 50.09375 C 47.804688 52.738281 46.238281 54.011719 44.671875 55.089844 C 43.890625 55.675781 43.695312 56.265625 43.792969 57.144531 C 43.890625 58.222656 44.480469 60.082031 44.773438 61.0625 C 45.066406 61.941406 45.75 62.335938 46.828125 62.238281 C 52.214844 61.84375 59.945312 61.257812 64.648438 61.0625 C 69.054688 60.867188 72.1875 60.769531 75.8125 60.574219 C 68.957031 62.238281 65.039062 66.839844 63.964844 73.398438 L 60.832031 75.0625 C 60.144531 72.421875 56.621094 71.539062 48.492188 71.539062 Z M 44.085938 98.074219 C 45.261719 97.777344 45.847656 96.898438 45.847656 96.113281 C 45.847656 94.941406 45.164062 94.15625 44.28125 93.566406 C 42.816406 92.6875 41.246094 91.902344 39.875 90.730469 C 38.40625 89.457031 37.527344 88.378906 36.644531 87.203125 C 35.957031 86.421875 35.371094 86.125 34.492188 86.125 C 33.414062 86.125 32.632812 86.910156 32.632812 87.792969 C 32.632812 88.28125 32.726562 88.675781 32.925781 88.96875 C 31.457031 88.476562 30.574219 86.910156 30.574219 85.246094 C 30.574219 83.679688 31.554688 82.503906 32.53125 81.917969 C 32.433594 81.625 32.335938 81.230469 32.335938 80.742188 C 32.335938 78.6875 34 76.726562 36.644531 76.53125 C 37.132812 75.160156 38.605469 74.085938 40.5625 74.085938 C 42.910156 74.085938 45.359375 75.847656 45.359375 78.980469 C 45.359375 80.546875 44.96875 80.9375 44.96875 82.113281 C 44.96875 82.800781 45.164062 83.386719 46.140625 84.367188 C 47.316406 85.539062 47.90625 86.226562 48.589844 86.226562 C 49.273438 86.226562 49.667969 85.933594 50.449219 85.34375 C 54.855469 81.625 58.675781 77.707031 63.964844 74.867188 C 64.058594 79.46875 65.824219 83.191406 69.640625 86.027344 L 66.3125 88.574219 C 65.726562 87.988281 65.136719 87.792969 64.355469 87.792969 C 63.082031 87.792969 61.808594 88.28125 59.851562 89.554688 C 57.597656 91.023438 53.878906 94.839844 51.234375 97.386719 C 49.765625 98.855469 48.199219 99.640625 46.730469 99.640625 C 45.554688 99.640625 44.574219 99.148438 44.085938 98.074219 Z M 35.765625 80.058594 C 34.492188 80.058594 33.609375 80.742188 33.414062 81.527344 C 33.804688 81.425781 34.292969 81.328125 34.882812 81.328125 C 36.351562 81.328125 37.625 82.015625 38.210938 83.191406 C 38.507812 81.328125 37.429688 80.058594 35.765625 80.058594 Z M 44.96875 128.03125 L 37.625 96.507812 L 34.980469 94.644531 L 33.707031 88.574219 C 33.511719 87.792969 33.902344 87.398438 34.492188 87.398438 C 34.882812 87.398438 35.175781 87.597656 35.566406 87.988281 C 36.839844 89.457031 37.625 90.339844 38.996094 91.511719 C 39.777344 92.199219 40.757812 92.785156 41.738281 93.273438 L 47.804688 119.613281 C 46.828125 120.496094 46.140625 121.867188 46.140625 123.332031 C 46.140625 124.410156 46.4375 125.390625 46.925781 126.269531 C 46.730469 126.761719 46.632812 127.25 46.632812 127.839844 C 46.632812 128.425781 46.730469 129.011719 47.023438 129.601562 Z M 40.167969 49.703125 C 40.167969 48.039062 38.796875 46.960938 37.527344 46.960938 C 36.9375 46.960938 36.546875 47.15625 36.253906 47.257812 C 37.917969 47.941406 39.09375 49.410156 38.996094 52.152344 C 39.875 51.566406 40.167969 50.585938 40.167969 49.703125 Z M 41.738281 78.589844 C 41.738281 77.316406 40.660156 76.140625 39.289062 76.140625 C 38.507812 76.140625 38.015625 76.433594 37.722656 76.628906 C 39.582031 77.019531 41.050781 78.589844 41.148438 80.546875 C 41.441406 80.058594 41.738281 79.566406 41.738281 78.589844 Z M 44.871094 49.117188 C 44.871094 47.648438 43.597656 46.570312 42.128906 46.570312 C 42.714844 47.058594 43.304688 48.234375 43.304688 49.507812 C 43.304688 50.09375 43.207031 50.878906 42.816406 51.761719 C 43.988281 51.367188 44.871094 50.488281 44.871094 49.117188 Z M 48.003906 127.839844 C 48.003906 127.152344 48.101562 126.761719 48.394531 126.074219 C 47.90625 125.488281 47.515625 124.507812 47.515625 123.332031 C 47.515625 122.160156 48.101562 120.886719 49.371094 120.101562 C 48.980469 117.164062 51.332031 115.207031 53.976562 115.207031 C 56.914062 115.207031 58.382812 117.261719 58.871094 119.320312 C 59.261719 120.789062 59.851562 121.277344 60.535156 121.375 C 61.808594 121.574219 63.863281 121.375 64.648438 121.179688 C 65.53125 120.984375 65.921875 120.496094 65.921875 119.023438 C 66.019531 108.746094 64.746094 102.183594 64.746094 98.464844 C 64.746094 94.449219 66.996094 92.6875 69.347656 91.902344 C 72.480469 90.828125 78.648438 89.945312 81.6875 90.042969 C 83.054688 90.042969 83.742188 90.925781 84.328125 91.804688 C 85.40625 93.46875 86.289062 95.234375 87.363281 97.484375 C 86.582031 97.875 86.1875 98.5625 86.1875 99.539062 C 86.1875 100.910156 86.972656 102.085938 88.046875 102.675781 L 76.59375 102.96875 C 76.496094 103.652344 76.496094 104.339844 76.496094 104.925781 C 76.496094 106.199219 77.375 107.082031 78.550781 107.082031 C 79.433594 107.082031 80.214844 106.785156 80.902344 106.199219 C 81.292969 110.214844 78.847656 111.488281 76.300781 111.585938 C 76.398438 115.207031 76.59375 117.851562 76.59375 124.410156 C 76.59375 129.109375 74.246094 131.949219 70.914062 131.949219 C 71.109375 131.753906 71.207031 131.460938 71.207031 131.167969 C 71.207031 129.308594 69.152344 128.425781 67.683594 128.425781 C 64.746094 128.425781 63.179688 130.773438 59.945312 130.773438 C 57.109375 130.773438 55.933594 128.425781 53.78125 128.425781 C 52.410156 128.425781 51.429688 129.308594 51.429688 130.480469 C 51.429688 131.066406 51.625 131.558594 52.015625 132.046875 C 50.15625 132.046875 48.003906 130.285156 48.003906 127.839844 Z M 51.824219 122.550781 C 49.960938 122.550781 48.980469 124.019531 49.175781 125.195312 C 49.570312 124.703125 50.351562 124.019531 51.917969 124.019531 C 53.191406 124.019531 54.171875 124.605469 54.757812 125.292969 C 54.757812 123.921875 53.78125 122.550781 51.824219 122.550781 Z M 52.703125 118.046875 C 51.136719 118.046875 50.351562 118.925781 50.253906 119.710938 C 50.648438 119.515625 51.234375 119.320312 52.113281 119.320312 C 53.679688 119.320312 54.957031 120.199219 55.347656 121.082031 C 55.542969 119.515625 54.5625 118.046875 52.703125 118.046875 Z M 65.429688 74.964844 C 65.429688 68.503906 70.328125 62.726562 77.867188 60.964844 C 80.707031 60.277344 83.152344 59.886719 86.484375 59.003906 C 92.75 57.339844 94.707031 54.601562 94.707031 50.976562 C 94.707031 49.996094 94.511719 49.214844 94.019531 48.429688 C 94.121094 49.019531 94.121094 49.507812 94.121094 50.09375 C 94.121094 54.011719 90.496094 57.535156 85.210938 58.027344 C 82.371094 58.222656 79.335938 58.613281 76.398438 58.90625 C 75.714844 59.003906 75.417969 58.710938 75.417969 58.125 L 75.320312 53.425781 C 75.320312 53.230469 75.417969 53.035156 75.714844 53.035156 C 75.910156 53.035156 76.003906 53.128906 76.105469 53.328125 C 76.691406 54.207031 77.867188 55.089844 79.53125 55.089844 C 80.902344 55.089844 81.6875 54.304688 81.6875 53.425781 C 81.6875 52.445312 80.804688 51.566406 79.039062 51.566406 C 75.222656 51.566406 73.265625 54.207031 69.054688 54.207031 C 64.453125 54.207031 62.886719 51.957031 62.886719 49.800781 C 62.886719 48.039062 63.863281 46.960938 65.136719 46.375 C 64.746094 46.863281 64.648438 47.257812 64.648438 47.941406 C 64.648438 49.410156 66.410156 50.585938 69.542969 50.585938 C 72.480469 50.585938 74.339844 49.902344 76.59375 49.902344 C 79.53125 49.902344 81.292969 50.878906 82.078125 51.957031 C 81.980469 49.703125 80.3125 47.746094 78.160156 47.746094 C 76.691406 47.746094 76.105469 48.628906 75.910156 49.019531 C 75.8125 49.3125 75.613281 49.410156 75.417969 49.410156 C 75.222656 49.410156 75.027344 49.3125 75.027344 49.117188 L 74.539062 44.222656 C 74.4375 43.632812 74.734375 43.339844 75.515625 43.242188 L 80.511719 42.851562 C 81.390625 45.296875 81.980469 46.667969 83.25 46.667969 C 83.9375 46.667969 84.230469 45.886719 84.230469 45.199219 C 85.308594 44.90625 86.382812 44.90625 87.460938 45.003906 C 86.1875 44.121094 81.980469 44.613281 80.707031 42.851562 C 82.761719 42.753906 84.328125 42.652344 85.992188 42.652344 C 87.65625 42.652344 89.125 42.652344 90.496094 42.851562 C 92.0625 43.046875 93.628906 43.925781 93.628906 45.59375 C 93.628906 46.667969 93.042969 47.453125 91.964844 47.453125 C 91.574219 47.453125 91.28125 47.355469 90.886719 47.058594 C 90.988281 47.84375 91.769531 48.332031 92.554688 48.332031 C 93.828125 48.332031 94.707031 47.550781 94.707031 45.886719 C 94.707031 45.003906 94.511719 44.023438 93.828125 43.242188 C 95.882812 44.90625 97.15625 47.84375 97.15625 51.269531 C 97.15625 57.242188 95 60.378906 88.34375 62.726562 C 84.914062 63.902344 82.175781 64.683594 78.746094 65.957031 C 73.164062 68.011719 69.839844 71.832031 69.839844 77.21875 C 69.839844 80.9375 71.699219 85.148438 75.613281 87.105469 C 69.640625 86.324219 65.429688 80.9375 65.429688 74.964844 Z M 71.304688 77.511719 C 71.304688 72.222656 74.246094 69.089844 79.921875 66.9375 C 83.054688 65.761719 86.089844 64.878906 88.929688 64 C 95.882812 61.550781 98.328125 57.929688 98.328125 51.46875 C 98.328125 48.726562 97.546875 46.082031 96.273438 44.515625 C 98.429688 46.375 100.191406 49.214844 100.191406 54.109375 C 100.191406 59.203125 98.722656 64.390625 91.671875 67.035156 C 88.34375 68.308594 86.484375 68.992188 82.957031 70.460938 C 77.476562 72.808594 75.714844 75.945312 75.714844 80.15625 C 75.714844 84.167969 77.867188 86.421875 79.53125 87.792969 C 75.515625 87.105469 71.304688 82.992188 71.304688 77.511719 Z M 77.179688 80.253906 C 77.179688 76.335938 79.039062 73.691406 83.839844 71.441406 C 86.875 70.070312 89.125 69.582031 92.652344 68.109375 C 99.601562 65.371094 101.363281 60.179688 101.363281 54.207031 C 101.363281 52.152344 101.070312 49.703125 99.996094 47.648438 C 101.464844 49.410156 103.226562 52.152344 103.226562 57.535156 C 103.226562 63.117188 101.363281 68.308594 95.195312 71.34375 C 92.257812 72.714844 90.300781 73.496094 86.972656 75.0625 C 83.152344 77.019531 81 79.761719 81 82.992188 C 81 85.539062 82.175781 87.5 83.25 88.574219 C 79.53125 87.5 77.179688 83.972656 77.179688 80.253906 Z M 86.089844 41.578125 C 84.132812 41.578125 82.175781 41.675781 80.117188 41.871094 L 77.476562 36.683594 L 81.980469 36.683594 C 81.980469 37.855469 82.859375 38.738281 83.9375 38.738281 C 85.011719 38.738281 85.894531 37.855469 85.894531 36.683594 L 89.910156 36.683594 C 89.910156 37.953125 90.695312 38.738281 91.867188 38.738281 C 92.945312 38.738281 93.828125 37.660156 93.828125 36.683594 L 98.328125 36.683594 L 95.292969 42.066406 C 92.847656 41.773438 89.710938 41.578125 86.089844 41.578125 Z M 82.46875 83.089844 C 82.46875 80.351562 84.328125 78.097656 87.65625 76.335938 C 90.007812 75.160156 91.964844 74.378906 95.882812 72.421875 C 102.050781 69.386719 104.398438 64.390625 104.398438 57.636719 C 104.398438 55.871094 104.105469 54.402344 103.8125 52.640625 C 104.890625 54.792969 105.769531 57.339844 105.769531 60.574219 C 105.769531 67.035156 103.519531 73.300781 97.058594 76.628906 C 94.316406 78 92.75 78.882812 90.695312 79.859375 C 87.558594 81.230469 86.089844 83.386719 86.089844 85.933594 C 86.089844 87.890625 86.582031 88.96875 87.070312 89.847656 C 84.230469 89.0625 82.46875 86.519531 82.46875 83.089844 Z M 87.460938 99.738281 C 87.460938 98.757812 87.753906 98.171875 88.929688 97.972656 C 87.558594 94.941406 86.484375 92.980469 85.699219 91.707031 C 85.40625 91.21875 85.699219 90.925781 86.089844 90.925781 C 86.679688 90.925781 87.167969 91.121094 87.558594 91.707031 C 88.246094 92.589844 89.125 93.960938 89.8125 95.234375 C 91.082031 97.484375 91.867188 99.640625 91.964844 102.773438 L 90.988281 102.773438 C 88.929688 102.773438 87.460938 101.304688 87.460938 99.738281 Z M 94.414062 127.839844 C 94.414062 127.152344 94.511719 126.761719 94.804688 126.074219 C 94.316406 125.488281 93.921875 124.507812 93.921875 123.332031 C 93.921875 122.160156 94.511719 120.886719 95.785156 120.101562 C 95.390625 117.164062 97.742188 115.207031 100.386719 115.207031 C 103.324219 115.207031 104.792969 117.261719 105.28125 119.320312 C 105.671875 120.789062 106.261719 121.277344 106.945312 121.375 C 108.21875 121.574219 110.273438 121.375 111.058594 121.179688 C 111.9375 120.984375 112.332031 120.496094 112.332031 119.023438 C 112.332031 116.578125 111.644531 113.347656 111.058594 110.605469 C 109.589844 110.800781 105.96875 110.996094 103.226562 110.996094 C 97.15625 110.996094 93.730469 108.253906 93.140625 102.28125 C 92.945312 99.832031 92.457031 97.484375 90.988281 94.839844 C 89.910156 92.785156 87.460938 90.042969 87.460938 86.519531 C 87.460938 83.875 88.441406 82.308594 91.476562 80.839844 C 93.628906 79.859375 96.175781 78.6875 98.328125 77.414062 C 98.230469 80.839844 100.289062 85.441406 102.933594 87.398438 C 105.871094 89.554688 108.613281 90.140625 112.625 90.140625 C 117.226562 90.140625 121.632812 88.769531 123.984375 86.027344 C 122.609375 86.910156 120.753906 87.398438 118.402344 87.398438 C 111.15625 87.398438 106.554688 81.820312 106.554688 75.847656 C 106.554688 71.539062 108.902344 67.71875 112.820312 64.488281 C 116.050781 61.84375 118.988281 60.179688 121.242188 57.929688 C 122.710938 56.460938 123.984375 54.699219 123.984375 52.640625 C 123.984375 50.195312 122.316406 47.84375 120.554688 47.15625 C 121.535156 45.984375 123.492188 44.90625 125.253906 44.90625 C 128.191406 44.90625 130.933594 47.058594 130.933594 49.902344 C 130.933594 52.054688 129.660156 53.71875 127.996094 54.5 C 128.09375 56.167969 127.019531 58.320312 125.746094 59.691406 C 123.296875 62.335938 118.792969 65.175781 115.855469 67.523438 C 112.917969 69.875 111.351562 72.320312 111.351562 75.652344 C 111.351562 80.058594 114.878906 83.289062 119.378906 83.289062 C 123.59375 83.289062 127.214844 80.058594 127.214844 75.550781 C 127.214844 71.441406 124.277344 68.40625 119.773438 66.347656 L 123.492188 63.707031 C 127.507812 66.054688 131.914062 69.285156 131.914062 76.238281 C 131.914062 85.832031 124.179688 94.253906 111.644531 94.253906 C 107.726562 94.253906 106.652344 93.765625 104.203125 92.785156 C 105.769531 94.253906 107.4375 96.410156 107.535156 99.050781 C 109.492188 99.640625 110.863281 99.933594 115.074219 99.933594 C 116.933594 99.933594 119.480469 99.640625 121.535156 99.050781 C 123.003906 98.660156 123.886719 98.074219 124.375 97.386719 C 124.863281 98.171875 125.15625 99.050781 125.15625 99.832031 C 125.15625 102.085938 123.492188 103.847656 121.730469 104.242188 C 122.417969 111.191406 123.003906 118.144531 123.003906 124.410156 C 123.003906 129.109375 120.652344 131.949219 117.324219 131.949219 C 117.519531 131.753906 117.621094 131.460938 117.621094 131.167969 C 117.621094 129.308594 115.5625 128.425781 114.09375 128.425781 C 111.15625 128.425781 109.589844 130.773438 106.359375 130.773438 C 103.519531 130.773438 102.34375 128.425781 100.191406 128.425781 C 98.820312 128.425781 97.839844 129.308594 97.839844 130.480469 C 97.839844 131.066406 98.035156 131.558594 98.429688 132.046875 C 96.566406 132.046875 94.414062 130.285156 94.414062 127.839844 Z M 98.230469 122.550781 C 96.371094 122.550781 95.390625 124.019531 95.585938 125.195312 C 95.980469 124.703125 96.761719 124.019531 98.328125 124.019531 C 99.601562 124.019531 100.582031 124.605469 101.171875 125.292969 C 101.171875 123.921875 100.191406 122.550781 98.230469 122.550781 Z M 99.113281 118.046875 C 97.546875 118.046875 96.761719 118.925781 96.664062 119.710938 C 97.058594 119.515625 97.644531 119.320312 98.527344 119.320312 C 100.09375 119.320312 101.363281 120.199219 101.757812 121.082031 C 101.953125 119.515625 100.972656 118.046875 99.113281 118.046875 Z M 111.351562 54.304688 C 109.882812 53.523438 108.613281 51.859375 108.613281 49.902344 C 108.613281 47.058594 111.058594 44.90625 113.996094 44.90625 C 116.246094 44.90625 117.816406 45.984375 118.792969 47.15625 C 116.933594 48.136719 115.464844 50.488281 115.464844 52.640625 C 115.464844 55.480469 116.933594 57.242188 118.304688 58.710938 L 114.679688 61.355469 C 112.625 59.496094 111.351562 57.046875 111.351562 54.304688 "/>
<path fill-rule="nonzero" fill="rgb(100%, 100%, 100%)" fill-opacity="1" d="M 159.378906 96 C 159.378906 93.242188 161.554688 91.566406 164.109375 91.566406 C 165.125 91.566406 165.761719 91.742188 166.269531 91.972656 L 166.269531 94.121094 C 165.785156 93.878906 165.242188 93.699219 164.453125 93.699219 C 163.296875 93.699219 162.101562 94.4375 162.101562 96 C 162.101562 97.5625 163.410156 98.25 164.3125 98.25 C 165.214844 98.25 165.785156 98.019531 166.28125 97.753906 L 166.28125 99.925781 C 165.761719 100.195312 164.894531 100.460938 163.867188 100.460938 C 161.324219 100.460938 159.378906 98.761719 159.378906 96 "/>
<path fill-rule="nonzero" fill="rgb(100%, 100%, 100%)" fill-opacity="1" d="M 167.511719 98.414062 L 171.121094 93.699219 L 167.585938 93.699219 L 167.585938 91.679688 L 174.234375 91.679688 L 174.234375 93.496094 L 170.558594 98.300781 L 174.296875 98.300781 L 174.296875 100.320312 L 167.511719 100.320312 L 167.511719 98.414062 "/>
<path fill-rule="nonzero" fill="rgb(100%, 100%, 100%)" fill-opacity="1" d="M 176.1875 91.679688 L 182.148438 91.679688 L 182.148438 93.652344 L 178.679688 93.652344 L 178.679688 95.035156 L 182.035156 95.035156 L 182.035156 96.953125 L 178.679688 96.953125 L 178.679688 98.351562 L 182.148438 98.351562 L 182.148438 100.320312 L 176.1875 100.320312 L 176.1875 91.679688 "/>
<path fill-rule="nonzero" fill="rgb(100%, 100%, 100%)" fill-opacity="1" d="M 183.933594 96 C 183.933594 93.242188 186.109375 91.566406 188.660156 91.566406 C 189.679688 91.566406 190.316406 91.742188 190.824219 91.972656 L 190.824219 94.121094 C 190.339844 93.878906 189.792969 93.699219 189.007812 93.699219 C 187.847656 93.699219 186.65625 94.4375 186.65625 96 C 186.65625 97.5625 187.960938 98.25 188.867188 98.25 C 189.769531 98.25 190.339844 98.019531 190.835938 97.753906 L 190.835938 99.925781 C 190.316406 100.195312 189.449219 100.460938 188.421875 100.460938 C 185.878906 100.460938 183.933594 98.761719 183.933594 96 "/>
<path fill-rule="nonzero" fill="rgb(100%, 100%, 100%)" fill-opacity="1" d="M 195.203125 91.679688 L 195.203125 94.984375 L 197.757812 94.984375 L 197.757812 91.679688 L 200.25 91.679688 L 200.25 100.320312 L 197.757812 100.320312 L 197.757812 96.941406 L 195.203125 96.941406 L 195.203125 100.320312 L 192.710938 100.320312 L 192.710938 91.679688 L 195.203125 91.679688 "/>
<path fill-rule="nonzero" fill="rgb(100%, 100%, 100%)" fill-opacity="1" d="M 206.851562 93.699219 L 204.691406 93.699219 L 204.691406 91.679688 L 211.488281 91.679688 L 211.488281 93.699219 L 209.339844 93.699219 L 209.339844 100.320312 L 206.851562 100.320312 L 206.851562 93.699219 "/>
<path fill-rule="nonzero" fill="rgb(100%, 100%, 100%)" fill-opacity="1" d="M 213.101562 91.679688 L 219.0625 91.679688 L 219.0625 93.652344 L 215.59375 93.652344 L 215.59375 95.035156 L 218.945312 95.035156 L 218.945312 96.953125 L 215.59375 96.953125 L 215.59375 98.351562 L 219.0625 98.351562 L 219.0625 100.320312 L 213.101562 100.320312 L 213.101562 91.679688 "/>
<path fill-rule="nonzero" fill="rgb(100%, 100%, 100%)" fill-opacity="1" d="M 220.847656 96 C 220.847656 93.242188 223.023438 91.566406 225.578125 91.566406 C 226.59375 91.566406 227.230469 91.742188 227.738281 91.972656 L 227.738281 94.121094 C 227.253906 93.878906 226.707031 93.699219 225.921875 93.699219 C 224.765625 93.699219 223.570312 94.4375 223.570312 96 C 223.570312 97.5625 224.878906 98.25 225.78125 98.25 C 226.683594 98.25 227.253906 98.019531 227.75 97.753906 L 227.75 99.925781 C 227.230469 100.195312 226.363281 100.460938 225.335938 100.460938 C 222.792969 100.460938 220.847656 98.761719 220.847656 96 "/>
<path fill-rule="nonzero" fill="rgb(100%, 100%, 100%)" fill-opacity="1" d="M 232.117188 91.679688 L 232.117188 94.984375 L 234.675781 94.984375 L 234.675781 91.679688 L 237.164062 91.679688 L 237.164062 100.320312 L 234.675781 100.320312 L 234.675781 96.941406 L 232.117188 96.941406 L 232.117188 100.320312 L 229.625 100.320312 L 229.625 91.679688 L 232.117188 91.679688 "/>
<path fill-rule="nonzero" fill="rgb(100%, 100%, 100%)" fill-opacity="1" d="M 239.699219 91.679688 L 242.761719 91.679688 L 245.355469 96.839844 L 245.394531 96.839844 L 245.394531 91.679688 L 247.882812 91.679688 L 247.882812 100.320312 L 244.847656 100.320312 L 242.230469 95.136719 L 242.191406 95.136719 L 242.191406 100.320312 L 239.699219 100.320312 L 239.699219 91.679688 "/>
<path fill-rule="nonzero" fill="rgb(100%, 100%, 100%)" fill-opacity="1" d="M 250.421875 100.320312 L 252.914062 100.320312 L 252.914062 91.679688 L 250.421875 91.679688 Z M 250.421875 100.320312 "/>
<path fill-rule="nonzero" fill="rgb(100%, 100%, 100%)" fill-opacity="1" d="M 254.945312 96 C 254.945312 93.242188 257.117188 91.566406 259.671875 91.566406 C 260.6875 91.566406 261.324219 91.742188 261.832031 91.972656 L 261.832031 94.121094 C 261.347656 93.878906 260.800781 93.699219 260.015625 93.699219 C 258.859375 93.699219 257.664062 94.4375 257.664062 96 C 257.664062 97.5625 258.972656 98.25 259.875 98.25 C 260.777344 98.25 261.347656 98.019531 261.847656 97.753906 L 261.847656 99.925781 C 261.324219 100.195312 260.460938 100.460938 259.429688 100.460938 C 256.890625 100.460938 254.945312 98.761719 254.945312 96 "/>
<path fill-rule="nonzero" fill="rgb(100%, 100%, 100%)" fill-opacity="1" d="M 268.703125 98.53125 L 265.945312 98.53125 L 265.476562 100.320312 L 262.921875 100.320312 L 265.5 91.679688 L 269.148438 91.679688 L 271.742188 100.320312 L 269.183594 100.320312 Z M 268.234375 96.761719 L 267.382812 93.574219 L 267.269531 93.574219 L 266.417969 96.761719 L 268.234375 96.761719 "/>
<path fill-rule="nonzero" fill="rgb(100%, 100%, 100%)" fill-opacity="1" d="M 273.058594 91.679688 L 275.550781 91.679688 L 275.550781 98.277344 L 278.636719 98.277344 L 278.636719 100.320312 L 273.058594 100.320312 L 273.058594 91.679688 "/>
<path fill-rule="nonzero" fill="rgb(100%, 100%, 100%)" fill-opacity="1" d="M 159.824219 112.554688 L 159.824219 107.101562 L 162.316406 107.101562 L 162.316406 112.324219 C 162.316406 113.304688 162.847656 113.738281 163.546875 113.738281 C 164.25 113.738281 164.785156 113.304688 164.785156 112.324219 L 164.785156 107.101562 L 167.273438 107.101562 L 167.273438 112.554688 C 167.273438 114.96875 165.582031 115.945312 163.546875 115.945312 C 161.515625 115.945312 159.824219 114.96875 159.824219 112.554688 "/>
<path fill-rule="nonzero" fill="rgb(100%, 100%, 100%)" fill-opacity="1" d="M 169.734375 107.101562 L 172.796875 107.101562 L 175.390625 112.261719 L 175.429688 112.261719 L 175.429688 107.101562 L 177.917969 107.101562 L 177.917969 115.742188 L 174.882812 115.742188 L 172.261719 110.558594 L 172.222656 110.558594 L 172.222656 115.742188 L 169.734375 115.742188 L 169.734375 107.101562 "/>
<path fill-rule="nonzero" fill="rgb(100%, 100%, 100%)" fill-opacity="1" d="M 180.453125 115.742188 L 182.945312 115.742188 L 182.945312 107.101562 L 180.453125 107.101562 Z M 180.453125 115.742188 "/>
<path fill-rule="nonzero" fill="rgb(100%, 100%, 100%)" fill-opacity="1" d="M 184.277344 107.101562 L 187.074219 107.101562 L 188.546875 113.570312 L 188.597656 113.570312 L 190.074219 107.101562 L 192.871094 107.101562 L 190.277344 115.742188 L 186.871094 115.742188 L 184.277344 107.101562 "/>
<path fill-rule="nonzero" fill="rgb(100%, 100%, 100%)" fill-opacity="1" d="M 194.453125 107.101562 L 200.414062 107.101562 L 200.414062 109.070312 L 196.945312 109.070312 L 196.945312 110.457031 L 200.296875 110.457031 L 200.296875 112.375 L 196.945312 112.375 L 196.945312 113.773438 L 200.414062 113.773438 L 200.414062 115.742188 L 194.453125 115.742188 L 194.453125 107.101562 "/>
<path fill-rule="nonzero" fill="rgb(100%, 100%, 100%)" fill-opacity="1" d="M 202.683594 107.101562 L 206.648438 107.101562 C 208.671875 107.101562 209.902344 108.398438 209.902344 109.949219 C 209.902344 111.421875 208.824219 112.070312 208.0625 112.414062 L 208.046875 112.464844 C 208.160156 112.539062 208.367188 112.792969 208.53125 113.074219 L 210.117188 115.742188 L 207.308594 115.742188 L 205.8125 112.707031 L 205.175781 112.707031 L 205.175781 115.742188 L 202.683594 115.742188 Z M 206.179688 111.089844 C 206.851562 111.089844 207.246094 110.558594 207.246094 110.011719 C 207.246094 109.464844 206.851562 108.945312 206.179688 108.945312 L 205.175781 108.945312 L 205.175781 111.089844 L 206.179688 111.089844 "/>
<path fill-rule="nonzero" fill="rgb(100%, 100%, 100%)" fill-opacity="1" d="M 211.601562 115.285156 L 211.601562 113.023438 C 212.160156 113.417969 213.316406 113.914062 214.460938 113.914062 C 215.300781 113.914062 215.757812 113.671875 215.757812 113.238281 C 215.757812 112.894531 215.441406 112.746094 214.96875 112.628906 C 214.410156 112.488281 214.066406 112.414062 213.417969 112.246094 C 212.25 111.957031 211.5 111.117188 211.5 109.78125 C 211.5 108.027344 213.089844 106.898438 215.234375 106.898438 C 216.253906 106.898438 217.167969 107.101562 217.726562 107.34375 L 217.726562 109.488281 C 217.296875 109.246094 216.417969 108.917969 215.363281 108.917969 C 214.398438 108.917969 213.964844 109.160156 213.964844 109.539062 C 213.964844 109.871094 214.21875 110.035156 214.804688 110.164062 C 215.234375 110.253906 215.554688 110.304688 216.125 110.445312 C 217.535156 110.785156 218.261719 111.613281 218.261719 113.023438 C 218.261719 114.460938 216.949219 115.945312 214.585938 115.945312 C 213.292969 115.945312 212.300781 115.679688 211.601562 115.285156 "/>
<path fill-rule="nonzero" fill="rgb(100%, 100%, 100%)" fill-opacity="1" d="M 220.25 115.742188 L 222.742188 115.742188 L 222.742188 107.101562 L 220.25 107.101562 Z M 220.25 115.742188 "/>
<path fill-rule="nonzero" fill="rgb(100%, 100%, 100%)" fill-opacity="1" d="M 226.566406 109.121094 L 224.40625 109.121094 L 224.40625 107.101562 L 231.203125 107.101562 L 231.203125 109.121094 L 229.058594 109.121094 L 229.058594 115.746094 L 226.566406 115.746094 L 226.566406 109.121094 "/>
<path fill-rule="nonzero" fill="rgb(100%, 100%, 100%)" fill-opacity="1" d="M 234.542969 112.578125 L 231.621094 107.101562 L 234.441406 107.101562 L 235.800781 110.191406 L 235.855469 110.191406 L 237.265625 107.101562 L 240.019531 107.101562 L 237.035156 112.578125 L 237.035156 115.742188 L 234.542969 115.742188 L 234.542969 112.578125 "/>
<path fill-rule="nonzero" fill="rgb(100%, 100%, 100%)" fill-opacity="1" d="M 159.886719 131.164062 L 162.378906 131.164062 L 162.378906 122.523438 L 159.886719 122.523438 Z M 159.886719 131.164062 "/>
<path fill-rule="nonzero" fill="rgb(100%, 100%, 100%)" fill-opacity="1" d="M 164.921875 122.523438 L 167.980469 122.523438 L 170.574219 127.683594 L 170.613281 127.683594 L 170.613281 122.523438 L 173.105469 122.523438 L 173.105469 131.164062 L 170.066406 131.164062 L 167.449219 125.980469 L 167.410156 125.980469 L 167.410156 131.164062 L 164.921875 131.164062 L 164.921875 122.523438 "/>
<path fill-rule="nonzero" fill="rgb(100%, 100%, 100%)" fill-opacity="1" d="M 178.828125 122.523438 L 182.589844 122.523438 C 184.613281 122.523438 185.871094 123.90625 185.871094 125.496094 C 185.871094 127.085938 184.613281 128.367188 182.589844 128.367188 L 181.320312 128.367188 L 181.320312 131.164062 L 178.828125 131.164062 Z M 182.300781 126.511719 C 182.84375 126.511719 183.339844 126.066406 183.339844 125.445312 C 183.339844 124.835938 182.84375 124.378906 182.300781 124.378906 L 181.320312 124.378906 L 181.320312 126.511719 L 182.300781 126.511719 "/>
<path fill-rule="nonzero" fill="rgb(100%, 100%, 100%)" fill-opacity="1" d="M 187.695312 122.523438 L 191.664062 122.523438 C 193.679688 122.523438 194.914062 123.816406 194.914062 125.367188 C 194.914062 126.84375 193.835938 127.492188 193.074219 127.835938 L 193.058594 127.886719 C 193.171875 127.960938 193.375 128.214844 193.542969 128.496094 L 195.132812 131.164062 L 192.324219 131.164062 L 190.820312 128.125 L 190.1875 128.125 L 190.1875 131.164062 L 187.695312 131.164062 Z M 191.191406 126.511719 C 191.863281 126.511719 192.257812 125.980469 192.257812 125.433594 C 192.257812 124.886719 191.863281 124.363281 191.191406 124.363281 L 190.1875 124.363281 L 190.1875 126.511719 L 191.191406 126.511719 "/>
<path fill-rule="nonzero" fill="rgb(100%, 100%, 100%)" fill-opacity="1" d="M 201.417969 129.375 L 198.660156 129.375 L 198.1875 131.164062 L 195.632812 131.164062 L 198.214844 122.523438 L 201.863281 122.523438 L 204.453125 131.164062 L 201.898438 131.164062 Z M 200.949219 127.605469 L 200.09375 124.414062 L 199.980469 124.414062 L 199.128906 127.605469 L 200.949219 127.605469 "/>
<path fill-rule="nonzero" fill="rgb(100%, 100%, 100%)" fill-opacity="1" d="M 205.390625 126.84375 C 205.390625 124.023438 207.359375 122.207031 210.292969 122.207031 C 211.441406 122.207031 212.277344 122.523438 212.785156 122.75 L 212.785156 124.785156 C 212.316406 124.53125 211.554688 124.222656 210.664062 124.222656 C 209.050781 124.222656 208.109375 125.089844 208.109375 126.84375 C 208.109375 128.46875 209.175781 129.207031 210.144531 129.207031 C 210.332031 129.207031 210.523438 129.183594 210.703125 129.144531 L 210.703125 126.804688 L 213.128906 126.804688 L 213.128906 130.632812 C 212.609375 130.898438 211.542969 131.367188 210.003906 131.367188 C 207.589844 131.367188 205.390625 129.664062 205.390625 126.84375 "/>
<path fill-rule="nonzero" fill="rgb(100%, 100%, 100%)" fill-opacity="1" d="M 215.246094 127.976562 L 215.246094 122.523438 L 217.738281 122.523438 L 217.738281 127.746094 C 217.738281 128.726562 218.269531 129.15625 218.972656 129.15625 C 219.667969 129.15625 220.203125 128.726562 220.203125 127.746094 L 220.203125 122.523438 L 222.695312 122.523438 L 222.695312 127.976562 C 222.695312 130.390625 221.003906 131.367188 218.972656 131.367188 C 216.9375 131.367188 215.246094 130.390625 215.246094 127.976562 "/>
<path fill-rule="nonzero" fill="rgb(100%, 100%, 100%)" fill-opacity="1" d="M 225.167969 122.523438 L 231.128906 122.523438 L 231.128906 124.492188 L 227.660156 124.492188 L 227.660156 125.878906 L 231.015625 125.878906 L 231.015625 127.796875 L 227.660156 127.796875 L 227.660156 129.195312 L 231.128906 129.195312 L 231.128906 131.164062 L 225.167969 131.164062 L 225.167969 122.523438 "/>
<path fill-rule="nonzero" fill="rgb(100%, 100%, 100%)" fill-opacity="1" d="M 194.699219 20.4375 L 194.699219 42.753906 L 203.933594 42.753906 L 203.933594 20.4375 L 211.894531 20.4375 L 211.894531 13.625 L 186.6875 13.625 L 186.6875 20.4375 Z M 224.152344 13.625 L 214.914062 13.625 L 214.914062 32.003906 C 214.914062 40.140625 221.183594 43.4375 228.722656 43.4375 C 236.261719 43.4375 242.527344 40.140625 242.527344 32.003906 L 242.527344 13.625 L 233.292969 13.625 L 233.292969 31.230469 C 233.292969 34.53125 231.3125 35.988281 228.722656 35.988281 C 226.128906 35.988281 224.152344 34.53125 224.152344 31.230469 Z M 158.1875 28.191406 C 158.1875 37.484375 165.394531 43.226562 174.820312 43.226562 C 178.636719 43.226562 181.84375 42.328125 183.773438 41.425781 L 183.773438 34.101562 C 181.9375 35 179.816406 35.773438 176.46875 35.773438 C 173.125 35.773438 168.269531 33.457031 168.269531 28.191406 C 168.269531 22.921875 172.699219 20.4375 176.988281 20.4375 C 179.910156 20.4375 181.9375 21.035156 183.726562 21.851562 L 183.726562 14.609375 C 181.84375 13.839844 179.488281 13.242188 175.714844 13.242188 C 166.246094 13.242188 158.1875 18.894531 158.1875 28.191406 "/>
</svg>
